<svg xmlns="http://www.w3.org/2000/svg" width="32" height="32" viewBox="0 0 24 24" fill="none" stroke="#FFFFFF" stroke-width="2" stroke-linecap="round" stroke-linejoin="round">
<defs>
  <linearGradient id="bgGradient" x1="0%" y1="0%" x2="100%" y2="100%">
    <stop offset="0%" style="stop-color:#E85D2A;stop-opacity:1" />
    <stop offset="100%" style="stop-color:#D63384;stop-opacity:1" />
  </linearGradient>
</defs>
<!-- Square background with gradient -->
<rect width="32" height="32" fill="url(#bgGradient)"/>
<!-- Chef hat - white fill with white stroke lines -->
<path d="M17 21a1 1 0 0 0 1-1v-5.35c0-.457.316-.844.727-1.041a4 4 0 0 0-2.134-7.589 5 5 0 0 0-9.186 0 4 4 0 0 0-2.134 7.588c.411.198.727.585.727 1.041V20a1 1 0 0 0 1 1Z" fill="#FFFFFF" stroke="#FFFFFF" stroke-width="2"/>
<path d="M6 17h12" fill="none" stroke="#FFFFFF" stroke-width="2"/>
</svg>
